<svg width="25" height="25" viewBox="0 0 25 25" fill="none" xmlns="http://www.w3.org/2000/svg">
<path d="M25 2.95936C24.081 3.46206 23.0919 3.80114 22.0541 3.95289C23.1137 3.1723 23.9262 1.93585 24.3093 0.460858C23.3182 1.18462 22.221 1.7098 21.0523 1.99331C20.117 0.766848 18.7839 0 17.3086 0C14.4764 0 12.18 2.82572 12.18 6.31151C12.18 6.80547 12.2252 7.28693 12.313 7.74966C8.05016 7.48614 4.27045 4.9739 1.74066 1.15527C1.29915 2.08698 1.04642 3.17105 1.04642 4.32882C1.04642 6.51821 1.95177 8.45032 3.32806 9.58186C2.48767 9.54876 1.69651 9.26463 1.00481 8.7919C1.0043 8.81813 1.0043 8.84498 1.0043 8.87183C1.0043 11.9292 2.77236 14.4796 5.11895 15.0603C4.68861 15.204 4.23543 15.2814 3.76753 15.2814C3.43666 15.2814 3.11542 15.242 2.80231 15.1677C3.45543 17.675 5.34935 19.5003 7.59343 19.5509C5.83805 21.2438 3.62696 22.253 1.22354 22.253C0.809939 22.253 0.401417 22.223 0 22.1643C2.27047 23.9559 4.9662 25 7.86239 25C17.297 25 22.4555 15.3832 22.4555 7.04276C22.4555 6.76925 22.4509 6.49635 22.4413 6.22533C23.443 5.33734 24.3129 4.22516 25 2.95936Z" fill="#00F49B"/>
</svg>
