<svg width="25" height="25" viewBox="0 0 25 25" fill="none" xmlns="http://www.w3.org/2000/svg">
<path d="M25 12.8131C25 15.6048 24.2052 18.1157 22.6156 20.3457C21.0259 22.5758 18.9724 24.119 16.4551 24.9755C16.1621 25.0311 15.9478 24.9921 15.8122 24.8587C15.6765 24.7252 15.6087 24.5584 15.6087 24.3582V20.8379C15.6087 19.759 15.3266 18.9693 14.7624 18.4688C15.3809 18.4021 15.937 18.302 16.4307 18.1685C16.9244 18.0351 17.4344 17.8182 17.9606 17.5179C18.4869 17.2176 18.9263 16.8477 19.279 16.4084C19.6316 15.9691 19.9192 15.3851 20.1416 14.6566C20.364 13.9281 20.4753 13.0911 20.4753 12.1457C20.4753 10.7999 20.0467 9.65429 19.1895 8.70888C19.5909 7.69674 19.5475 6.56225 19.0592 5.30541C18.7554 5.20531 18.316 5.26648 17.7409 5.48893C17.1658 5.71138 16.6667 5.95607 16.2435 6.22301L15.625 6.62342C14.6159 6.33424 13.5742 6.18964 12.5 6.18964C11.4258 6.18964 10.3841 6.33424 9.375 6.62342C9.20139 6.50107 8.97081 6.35092 8.68327 6.17296C8.39572 5.995 7.94271 5.78089 7.32422 5.53064C6.70573 5.28038 6.23915 5.20531 5.92448 5.30541C5.44705 6.56225 5.40907 7.69674 5.81055 8.70888C4.95334 9.65429 4.52474 10.7999 4.52474 12.1457C4.52474 13.0911 4.63596 13.9253 4.8584 14.6483C5.08084 15.3712 5.36567 15.9552 5.71289 16.4001C6.06011 16.845 6.49685 17.2176 7.02311 17.5179C7.54937 17.8182 8.05935 18.0351 8.55306 18.1685C9.04677 18.302 9.60286 18.4021 10.2214 18.4688C9.78733 18.8692 9.52148 19.442 9.42383 20.1873C9.19596 20.2985 8.95182 20.3819 8.69141 20.4375C8.43099 20.4931 8.12174 20.5209 7.76367 20.5209C7.4056 20.5209 7.05024 20.4014 6.69759 20.1622C6.34494 19.9231 6.04384 19.5755 5.79427 19.1195C5.58811 18.7636 5.32498 18.4744 5.00488 18.2519C4.68479 18.0295 4.41623 17.896 4.19922 17.8515L3.8737 17.8015C3.64583 17.8015 3.4885 17.8265 3.40169 17.8766C3.31489 17.9266 3.28776 17.9906 3.32031 18.0684C3.35286 18.1463 3.40169 18.2241 3.4668 18.302C3.5319 18.3799 3.60243 18.4466 3.67839 18.5022L3.79232 18.5856C4.03103 18.6968 4.26704 18.9082 4.50033 19.2196C4.73362 19.531 4.90451 19.8146 5.01302 20.0705L5.17578 20.4542C5.31684 20.8768 5.55556 21.2189 5.89193 21.4802C6.2283 21.7416 6.5918 21.9084 6.98242 21.9807C7.37305 22.053 7.75011 22.092 8.11361 22.0975C8.47711 22.1031 8.77821 22.0836 9.01693 22.0391L9.39128 21.9724C9.39128 22.3951 9.39399 22.89 9.39941 23.4573C9.40484 24.0245 9.40755 24.3248 9.40755 24.3582C9.40755 24.5584 9.33702 24.7252 9.19596 24.8587C9.0549 24.9921 8.83789 25.0311 8.54492 24.9755C6.02756 24.119 3.97407 22.5758 2.38444 20.3457C0.794813 18.1157 0 15.6048 0 12.8131C0 10.4885 0.558811 8.34462 1.67643 6.38151C2.79405 4.41839 4.31044 2.86403 6.22559 1.71842C8.14073 0.572806 10.2322 0 12.5 0C14.7678 0 16.8593 0.572806 18.7744 1.71842C20.6896 2.86403 22.2059 4.41839 23.3236 6.38151C24.4412 8.34462 25 10.4885 25 12.8131Z" fill="#00F49B"/>
</svg>
