<svg width="25" height="25" viewBox="0 0 25 25" fill="none" xmlns="http://www.w3.org/2000/svg">
<path d="M12.5 5.99799C8.97179 5.99799 6.0484 8.87097 6.0484 12.4496C6.0484 16.0282 8.92139 18.9012 12.5 18.9012C16.0786 18.9012 18.9516 15.9778 18.9516 12.4496C18.9516 8.92137 16.0282 5.99799 12.5 5.99799ZM12.5 16.5827C10.2319 16.5827 8.36695 14.7177 8.36695 12.4496C8.36695 10.1815 10.2319 8.31653 12.5 8.31653C14.7682 8.31653 16.6331 10.1815 16.6331 12.4496C16.6331 14.7177 14.7682 16.5827 12.5 16.5827Z" fill="#00F49B"/>
<path d="M19.2036 7.30849C20.0109 7.30849 20.6653 6.65407 20.6653 5.84679C20.6653 5.03952 20.0109 4.3851 19.2036 4.3851C18.3964 4.3851 17.7419 5.03952 17.7419 5.84679C17.7419 6.65407 18.3964 7.30849 19.2036 7.30849Z" fill="#00F49B"/>
<path d="M22.9839 2.06653C21.6734 0.705645 19.8085 0 17.6915 0H7.30847C2.92339 0 0 2.92339 0 7.30847V17.6411C0 19.8085 0.705645 21.6734 2.11694 23.0343C3.47782 24.3448 5.29234 25 7.35887 25H17.6411C19.8085 25 21.623 24.2944 22.9335 23.0343C24.2944 21.7238 25 19.8589 25 17.6915V7.30847C25 5.19153 24.2944 3.37702 22.9839 2.06653ZM22.7823 17.6915C22.7823 19.254 22.2278 20.5141 21.3206 21.371C20.4133 22.2278 19.1532 22.6815 17.6411 22.6815H7.35887C5.84677 22.6815 4.58669 22.2278 3.67944 21.371C2.77218 20.4637 2.31855 19.2036 2.31855 17.6411V7.30847C2.31855 5.79637 2.77218 4.53629 3.67944 3.62903C4.53629 2.77218 5.84677 2.31855 7.35887 2.31855H17.7419C19.254 2.31855 20.5141 2.77218 21.4214 3.67944C22.2782 4.58669 22.7823 5.84677 22.7823 7.30847V17.6915Z" fill="#00F49B"/>
</svg>
