<svg width="25" height="26" viewBox="0 0 25 26" fill="none" xmlns="http://www.w3.org/2000/svg">
<path d="M23.1517 0H1.84674C0.827011 0 0 0.807284 0 1.80223V23.3566C0 24.351 0.827011 25.1583 1.84674 25.1583H23.1517C24.173 25.1583 25 24.3505 25 23.3566V1.80223C25 0.806778 24.1725 0 23.1517 0ZM7.57764 21.0607H3.80172V9.70056H7.57764V21.0607ZM5.68993 8.14871H5.66464C4.39808 8.14871 3.57865 7.27618 3.57865 6.18614C3.57865 5.07183 4.42337 4.22357 5.71472 4.22357C7.00658 4.22357 7.80121 5.07183 7.8265 6.18614C7.8265 7.27618 7.00607 8.14871 5.68993 8.14871ZM21.1937 21.0607H17.4178V14.9818C17.4178 13.4552 16.8715 12.4133 15.5053 12.4133C14.4623 12.4133 13.8412 13.1158 13.5675 13.7946C13.4679 14.0369 13.4436 14.3758 13.4436 14.7157V21.0602H9.66768C9.66768 21.0602 9.71725 10.7648 9.66768 9.70005H13.4436V11.308C13.9454 10.5341 14.8427 9.43197 16.8472 9.43197C19.3313 9.43197 21.1942 11.0561 21.1942 14.5458V21.0607H21.1937Z" fill="#00F49B"/>
</svg>
