<?xml version="1.0" encoding="UTF-8" standalone="no"?>
<!-- Created with Inkscape (http://www.inkscape.org/) -->
<svg xmlns:rdf="http://www.w3.org/1999/02/22-rdf-syntax-ns#" xmlns="http://www.w3.org/2000/svg" height="63.929mm" width="360.97mm" version="1.1" xmlns:cc="http://creativecommons.org/ns#" xmlns:dc="http://purl.org/dc/elements/1.1/" viewBox="0 0 360.96588 63.930348">
 <metadata>
  <rdf:RDF>
   <cc:Work rdf:about="">
    <dc:format>image/svg+xml</dc:format>
    <dc:type rdf:resource="http://purl.org/dc/dcmitype/StillImage"/>
    <dc:title/>
   </cc:Work>
  </rdf:RDF>
 </metadata>
 <path style="paint-order:stroke fill markers" d="m360.97 7.4291c-1.1243-0.35893-2.2484-0.7205-3.3797-1.0475-1.8058-0.52186-3.6192-1.0086-5.4401-1.4614-1.821-0.45273-3.6497-0.87135-5.4851-1.2573-1.8354-0.38596-3.6773-0.73919-5.5264-1.0604-1.8491-0.32125-3.7052-0.61094-5.5672-0.86973-1.8622-0.25883-3.7306-0.48672-5.605-0.68525-1.8744-0.19856-3.7546-0.36738-5.6406-0.50799-1.886-0.14064-3.7783-0.25256-5.6752-0.33746-1.8969-0.085-3.7991-0.14223-5.7063-0.17364-1.9071-0.0313-3.8191-0.0365-5.7357-0.0165s-3.8377 0.0652-5.7631 0.13436c-1.9253 0.0692-3.8545 0.16248-5.7879 0.27854s-3.8708 0.25481-5.8117 0.41549c-3.8817 0.3213-7.7779 0.72993-11.685 1.2165-3.907 0.48645-7.8243 1.0512-11.751 1.6852-3.9266 0.63411-7.862 1.337-11.803 2.1007-3.9406 0.76357-7.8868 1.5875-11.836 2.463-3.9491 0.87545-7.901 1.8025-11.853 2.772-3.9517 0.96951-7.9033 1.9821-11.852 3.0278-3.949 1.0458-7.8953 2.1246-11.836 3.2288-7.8808 2.2084-15.739 4.516-23.552 6.8514-7.812 2.3354-15.58 4.699-23.281 7.0189-7.7006 2.3199-15.333 4.5963-22.876 6.7584-3.7712 1.0812-7.5197 2.1339-11.243 3.1487-3.7233 1.015-7.4212 1.9919-11.091 2.9229-3.6698 0.93085-7.312 1.8157-10.923 2.6449-3.6106 0.82927-7.1898 1.603-10.736 2.3126-3.5459 0.70962-7.058 1.3553-10.533 1.9276-3.4754 0.57224-6.914 1.0712-10.313 1.4883-3.3993 0.41722-6.7595 0.75221-10.077 0.99635-1.6588 0.12207-3.3068 0.22172-4.944 0.29715-1.6372 0.0754-3.2637 0.12683-4.8789 0.15348-1.6152 0.0267-3.2194 0.0284-4.8117 0.004-1.5924-0.0242-3.1727-0.0744-4.7414-0.15193-1.5686-0.0776-3.1257-0.18278-4.6701-0.31575-1.5445-0.1331-3.0762-0.29406-4.5957-0.48474-1.5194-0.1908-3.026-0.41079-4.5197-0.66147-1.4938-0.25069-2.9744-0.5322-4.4417-0.84493-1.4673-0.31287-2.9213-0.65735-4.3616-1.0346-1.4403-0.37719-2.8665-0.78717-4.2789-1.231-2.8248-0.88768-5.4848-1.7779-7.9868-2.6702-2.5019-0.89242-4.8462-1.7865-7.0406-2.6816-0.47842-0.19517-0.87473-0.39087-1.339-0.58602v20.734h360.97z" fill="#f0f"/>
</svg>
